<?xml version="1.0" standalone="no"?>
<!DOCTYPE svg PUBLIC "-//W3C//DTD SVG 20010904//EN"
 "http://www.w3.org/TR/2001/REC-SVG-20010904/DTD/svg10.dtd">
<svg version="1.0" xmlns="http://www.w3.org/2000/svg"
 width="700.000000pt" height="700.000000pt" viewBox="0 0 700.000000 700.000000"
 preserveAspectRatio="xMidYMid meet">
<metadata>
Created by potrace 1.11, written by Peter Selinger 2001-2013
</metadata>
<g transform="translate(0.000000,700.000000) scale(0.100000,-0.100000)"
fill="#000000" stroke="none">
<path d="M3501 6900 l-1 -85 -352 0 -351 0 -76 -33 c-42 -18 -89 -39 -106 -47
-241 -109 -414 -185 -422 -185 -11 0 -30 22 -71 84 -40 61 -40 54 -2 -36 17
-39 29 -72 28 -72 -2 -1 -145 -65 -318 -141 -173 -77 -324 -149 -335 -160 -11
-11 -58 -63 -105 -115 -47 -51 -109 -120 -137 -152 -29 -31 -63 -69 -75 -83
-12 -14 -43 -48 -69 -77 l-47 -51 -48 28 c-27 16 -60 35 -74 43 -14 8 3 -12
36 -44 56 -54 60 -60 45 -74 -9 -9 -50 -54 -91 -100 -41 -46 -86 -96 -100
-111 -14 -15 -52 -57 -85 -95 -33 -37 -86 -94 -117 -128 -43 -47 -63 -77 -81
-131 -39 -111 -181 -549 -182 -560 0 -10 -88 -10 -135 1 -46 10 -7 -13 53 -31
36 -11 57 -23 57 -33 0 -8 -13 -53 -29 -101 -127 -373 -182 -563 -177 -604 3
-23 8 -69 11 -102 3 -33 8 -73 10 -90 2 -16 7 -59 10 -95 3 -36 8 -78 10 -95
2 -16 6 -61 10 -100 3 -38 8 -84 10 -102 5 -32 5 -32 -73 -58 l-77 -25 77 6
c88 7 82 14 93 -101 6 -62 10 -99 21 -200 3 -33 8 -76 10 -95 2 -19 5 -57 8
-85 3 -27 8 -75 11 -105 11 -101 16 -113 114 -284 54 -94 108 -187 119 -206
11 -19 40 -71 66 -115 l46 -80 -28 -23 c-15 -14 -45 -40 -67 -60 l-40 -35 77
42 77 42 14 -23 c8 -13 74 -126 147 -253 72 -126 146 -253 163 -282 25 -43 58
-72 186 -165 86 -62 206 -149 268 -195 l112 -83 -30 -66 c-16 -37 -28 -69 -26
-71 2 -2 23 24 46 56 l42 60 187 -136 c353 -257 387 -280 417 -286 17 -4 127
-27 245 -52 118 -26 238 -51 265 -56 28 -6 61 -13 75 -15 13 -3 26 -7 28 -9 2
-2 4 -41 4 -87 l0 -83 19 79 c11 44 21 81 22 82 2 2 27 -3 57 -11 30 -7 71
-16 91 -19 20 -3 42 -8 50 -10 8 -3 25 -8 39 -10 68 -13 417 -87 428 -91 8 -3
57 4 111 15 116 24 96 20 301 64 91 19 177 37 193 40 15 3 38 8 52 11 15 3 25
1 25 -6 0 -16 51 -131 56 -126 1 1 -4 33 -12 71 -8 38 -13 70 -12 72 2 1 156
35 343 75 l340 72 230 166 c127 91 236 171 243 179 8 7 27 19 43 28 30 15 30
15 96 -43 l67 -58 -52 69 c-29 38 -49 73 -44 78 6 6 202 151 287 212 11 8 77
56 147 106 l126 92 114 196 c62 108 118 204 123 214 6 9 29 50 53 92 24 42 44
76 45 76 1 0 33 -11 71 -25 62 -23 113 -34 76 -17 -8 4 -41 22 -73 41 l-57 33
19 32 c10 17 61 105 113 196 146 254 158 274 168 290 48 79 54 98 65 210 3 36
8 76 10 90 2 14 6 59 10 100 3 41 8 82 10 90 2 8 6 47 10 85 8 104 16 169 21
177 2 4 12 6 22 6 24 -2 136 13 141 18 2 2 -12 5 -32 5 -20 1 -41 3 -47 4 -5
1 -26 3 -46 4 l-36 1 7 82 c4 46 8 90 10 98 2 8 6 49 10 90 4 41 9 86 10 100
2 14 6 54 9 90 4 36 8 81 11 100 18 129 17 139 -26 269 -22 69 -42 131 -43
136 -2 6 -6 17 -9 25 -17 45 -107 333 -107 343 0 7 10 17 23 23 53 26 106 58
103 61 -2 2 -30 -5 -62 -17 -32 -11 -64 -20 -70 -20 -15 0 -14 -2 -133 365
l-101 310 -63 67 c-34 36 -93 102 -132 145 -38 42 -83 92 -100 109 -16 18 -43
47 -59 66 -16 18 -43 48 -59 65 l-31 33 30 37 c17 21 41 54 54 73 21 30 16 27
-41 -22 l-66 -58 -44 48 c-24 26 -82 90 -129 142 -95 106 -127 141 -224 250
-68 75 -98 95 -246 159 -30 13 -73 32 -95 42 -22 10 -105 47 -185 82 -145 65
-145 65 -146 98 0 19 6 54 13 78 19 63 10 61 -20 -6 -15 -32 -30 -64 -35 -70
-8 -12 -79 17 -392 159 -30 14 -100 45 -155 69 l-100 44 -333 0 c-287 0 -333
2 -337 15 -2 8 -7 31 -11 50 -20 104 -22 106 -23 20z"/>
</g>
</svg>
